REM DIRINDEX 1\2,1\3
REM DIRNAME cjc039,folder01,folder02
TITLE ""
FILE "0481-0520.mp3" MP3
  TRACK 01 AUDIO
    TITLE "0:"
    INDEX 01 00:00:00
  TRACK 02 AUDIO
    TITLE "2:cjc039_0481"
    INDEX 01 00:00:25
  TRACK 03 AUDIO
    TITLE "0:"
    INDEX 01 00:01:46
  TRACK 04 AUDIO
    TITLE "2:cjc039_0482"
    INDEX 01 00:02:22
  TRACK 05 AUDIO
    TITLE "0:"
    INDEX 01 00:03:64
  TRACK 06 AUDIO
    TITLE "2:cjc039_0483"
    INDEX 01 00:04:42
  TRACK 07 AUDIO
    TITLE "0:"
    INDEX 01 00:05:65
  TRACK 08 AUDIO
    TITLE "2:cjc039_0484"
    INDEX 01 00:06:41
  TRACK 09 AUDIO
    TITLE "0:"
    INDEX 01 00:07:68
  TRACK 10 AUDIO
    TITLE "2:cjc039_0485"
    INDEX 01 00:08:42
  TRACK 11 AUDIO
    TITLE "0:"
    INDEX 01 00:10:10
  TRACK 12 AUDIO
    TITLE "2:cjc039_0486"
    INDEX 01 00:10:63
  TRACK 13 AUDIO
    TITLE "0:"
    INDEX 01 00:12:01
  TRACK 14 AUDIO
    TITLE "2:cjc039_0487"
    INDEX 01 00:12:48
  TRACK 15 AUDIO
    TITLE "0:"
    INDEX 01 00:13:61
  TRACK 16 AUDIO
    TITLE "2:cjc039_0488"
    INDEX 01 00:14:39
  TRACK 17 AUDIO
    TITLE "0:"
    INDEX 01 00:15:56
  TRACK 18 AUDIO
    TITLE "2:cjc039_0489"
    INDEX 01 00:16:30
  TRACK 19 AUDIO
    TITLE "0:"
    INDEX 01 00:17:72
  TRACK 20 AUDIO
    TITLE "2:cjc039_0490"
    INDEX 01 00:18:48
  TRACK 21 AUDIO
    TITLE "0:"
    INDEX 01 00:20:02
  TRACK 22 AUDIO
    TITLE "2:cjc039_0491"
    INDEX 01 00:20:39
  TRACK 23 AUDIO
    TITLE "0:"
    INDEX 01 00:22:07
  TRACK 24 AUDIO
    TITLE "2:cjc039_0492"
    INDEX 01 00:22:62
  TRACK 25 AUDIO
    TITLE "0:"
    INDEX 01 00:24:10
  TRACK 26 AUDIO
    TITLE "2:cjc039_0493"
    INDEX 01 00:24:63
  TRACK 27 AUDIO
    TITLE "0:"
    INDEX 01 00:26:28
  TRACK 28 AUDIO
    TITLE "2:cjc039_0494"
    INDEX 01 00:27:04
  TRACK 29 AUDIO
    TITLE "0:"
    INDEX 01 00:28:29
  TRACK 30 AUDIO
    TITLE "2:cjc039_0495"
    INDEX 01 00:29:07
  TRACK 31 AUDIO
    TITLE "0:"
    INDEX 01 00:30:57
  TRACK 32 AUDIO
    TITLE "2:cjc039_0496"
    INDEX 01 00:31:29
  TRACK 33 AUDIO
    TITLE "0:"
    INDEX 01 00:32:52
  TRACK 34 AUDIO
    TITLE "2:cjc039_0497"
    INDEX 01 00:33:30
  TRACK 35 AUDIO
    TITLE "0:"
    INDEX 01 00:34:53
  TRACK 36 AUDIO
    TITLE "2:cjc039_0498"
    INDEX 01 00:35:27
  TRACK 37 AUDIO
    TITLE "0:"
    INDEX 01 00:36:38
  TRACK 38 AUDIO
    TITLE "2:cjc039_0499"
    INDEX 01 00:37:12
  TRACK 39 AUDIO
    TITLE "0:"
    INDEX 01 00:38:33
  TRACK 40 AUDIO
    TITLE "2:cjc039_0500"
    INDEX 01 00:39:15
  TRACK 41 AUDIO
    TITLE "0:"
    INDEX 01 00:40:32
  TRACK 42 AUDIO
    TITLE "2:cjc039_0501"
    INDEX 01 00:41:02
  TRACK 43 AUDIO
    TITLE "0:"
    INDEX 01 00:42:43
  TRACK 44 AUDIO
    TITLE "2:cjc039_0502"
    INDEX 01 00:43:11
  TRACK 45 AUDIO
    TITLE "0:"
    INDEX 01 00:44:44
  TRACK 46 AUDIO
    TITLE "2:cjc039_0503"
    INDEX 01 00:45:20
  TRACK 47 AUDIO
    TITLE "0:"
    INDEX 01 00:46:35
  TRACK 48 AUDIO
    TITLE "2:cjc039_0504"
    INDEX 01 00:46:72
  TRACK 49 AUDIO
    TITLE "0:"
    INDEX 01 00:48:16
  TRACK 50 AUDIO
    TITLE "2:cjc039_0505"
    INDEX 01 00:48:73
  TRACK 51 AUDIO
    TITLE "0:"
    INDEX 01 00:50:37
  TRACK 52 AUDIO
    TITLE "2:cjc039_0506"
    INDEX 01 00:51:15
  TRACK 53 AUDIO
    TITLE "0:"
    INDEX 01 00:52:53
  TRACK 54 AUDIO
    TITLE "2:cjc039_0507"
    INDEX 01 00:53:29
  TRACK 55 AUDIO
    TITLE "0:"
    INDEX 01 00:54:44
  TRACK 56 AUDIO
    TITLE "2:cjc039_0508"
    INDEX 01 00:55:24
  TRACK 57 AUDIO
    TITLE "0:"
    INDEX 01 00:56:37
  TRACK 58 AUDIO
    TITLE "2:cjc039_0509"
    INDEX 01 00:57:17
  TRACK 59 AUDIO
    TITLE "0:"
    INDEX 01 00:58:44
  TRACK 60 AUDIO
    TITLE "2:cjc039_0510"
    INDEX 01 00:59:24
  TRACK 61 AUDIO
    TITLE "0:"
    INDEX 01 01:00:43
  TRACK 62 AUDIO
    TITLE "2:cjc039_0511"
    INDEX 01 01:01:13
  TRACK 63 AUDIO
    TITLE "0:"
    INDEX 01 01:02:57
  TRACK 64 AUDIO
    TITLE "2:cjc039_0512"
    INDEX 01 01:03:33
  TRACK 65 AUDIO
    TITLE "0:"
    INDEX 01 01:05:01
  TRACK 66 AUDIO
    TITLE "2:cjc039_0513"
    INDEX 01 01:05:52
  TRACK 67 AUDIO
    TITLE "0:"
    INDEX 01 01:07:10
  TRACK 68 AUDIO
    TITLE "2:cjc039_0514"
    INDEX 01 01:07:64
  TRACK 69 AUDIO
    TITLE "0:"
    INDEX 01 01:09:01
  TRACK 70 AUDIO
    TITLE "2:cjc039_0515"
    INDEX 01 01:09:54
  TRACK 71 AUDIO
    TITLE "0:"
    INDEX 01 01:11:07
  TRACK 72 AUDIO
    TITLE "2:cjc039_0516"
    INDEX 01 01:11:64
  TRACK 73 AUDIO
    TITLE "0:"
    INDEX 01 01:13:16
  TRACK 74 AUDIO
    TITLE "2:cjc039_0517"
    INDEX 01 01:13:73
  TRACK 75 AUDIO
    TITLE "0:"
    INDEX 01 01:15:31
  TRACK 76 AUDIO
    TITLE "2:cjc039_0518"
    INDEX 01 01:16:11
  TRACK 77 AUDIO
    TITLE "0:"
    INDEX 01 01:17:61
  TRACK 78 AUDIO
    TITLE "2:cjc039_0519"
    INDEX 01 01:18:27
  TRACK 79 AUDIO
    TITLE "0:"
    INDEX 01 01:19:70
  TRACK 80 AUDIO
    TITLE "2:cjc039_0520"
    INDEX 01 01:20:44
  TRACK 81 AUDIO
    TITLE "0:"
    INDEX 01 01:21:55
